<svg xmlns="http://www.w3.org/2000/svg" version="1.1" xmlns:xlink="http://www.w3.org/1999/xlink" xmlns:svgjs="http://svgjs.dev/svgjs" width="1440" height="560" preserveAspectRatio="none" viewBox="0 0 1440 560"><g mask="url(&quot;#SvgjsMask2031&quot;)" fill="none"><rect width="1440" height="560" x="0" y="0" fill="#0e2a47"></rect><g mask="url(&quot;#SvgjsMask2033&quot;)"><path d="M137.5 337.5L162.5 312.5M62.5 337.5L87.5 312.5M112.5 337.5L137.5 312.5L162.5 287.5L187.5 287.5M-12.5 287.5L12.5 312.5L37.5 312.5L62.5 337.5L87.5 337.5L112.5 337.5L137.5 337.5L162.5 337.5" stroke="url(&quot;#SvgjsLinearGradient2032&quot;)" stroke-width="4.17"></path><path d="M156.25 337.5 a6.25 6.25 0 1 0 12.5 0 a6.25 6.25 0 1 0 -12.5 0zM156.25 312.5 a6.25 6.25 0 1 0 12.5 0 a6.25 6.25 0 1 0 -12.5 0zM81.25 312.5 a6.25 6.25 0 1 0 12.5 0 a6.25 6.25 0 1 0 -12.5 0zM181.25 287.5 a6.25 6.25 0 1 0 12.5 0 a6.25 6.25 0 1 0 -12.5 0z" fill="url(&quot;#SvgjsLinearGradient2032&quot;)"></path><path d="M112.5 237.5L137.5 262.5L162.5 262.5L187.5 262.5L212.5 262.5M37.5 237.5L62.5 262.5L87.5 262.5L112.5 262.5M12.5 262.5L37.5 262.5L62.5 287.5L87.5 287.5L112.5 312.5M-12.5 262.5L12.5 262.5L37.5 237.5L62.5 237.5L87.5 237.5L112.5 237.5L137.5 237.5L162.5 237.5L187.5 237.5" stroke="url(&quot;#SvgjsLinearGradient2032&quot;)" stroke-width="4.17"></path><path d="M181.25 237.5 a6.25 6.25 0 1 0 12.5 0 a6.25 6.25 0 1 0 -12.5 0zM206.25 262.5 a6.25 6.25 0 1 0 12.5 0 a6.25 6.25 0 1 0 -12.5 0zM106.25 262.5 a6.25 6.25 0 1 0 12.5 0 a6.25 6.25 0 1 0 -12.5 0zM106.25 312.5 a6.25 6.25 0 1 0 12.5 0 a6.25 6.25 0 1 0 -12.5 0z" fill="url(&quot;#SvgjsLinearGradient2032&quot;)"></path><path d="M212.5 362.5L237.5 387.5L262.5 387.5L287.5 387.5M312.5 362.5L337.5 387.5L362.5 387.5M187.5 362.5L212.5 337.5L237.5 312.5M112.5 362.5L137.5 387.5L162.5 387.5M-12.5 312.5L12.5 337.5L37.5 337.5L62.5 362.5L87.5 362.5L112.5 362.5L137.5 362.5L162.5 362.5L187.5 362.5L212.5 362.5L237.5 362.5L262.5 362.5L287.5 362.5L312.5 362.5L337.5 362.5L362.5 362.5L387.5 362.5" stroke="url(&quot;#SvgjsLinearGradient2032&quot;)" stroke-width="4.17"></path><path d="M381.25 362.5 a6.25 6.25 0 1 0 12.5 0 a6.25 6.25 0 1 0 -12.5 0zM281.25 387.5 a6.25 6.25 0 1 0 12.5 0 a6.25 6.25 0 1 0 -12.5 0zM356.25 387.5 a6.25 6.25 0 1 0 12.5 0 a6.25 6.25 0 1 0 -12.5 0zM231.25 312.5 a6.25 6.25 0 1 0 12.5 0 a6.25 6.25 0 1 0 -12.5 0zM156.25 387.5 a6.25 6.25 0 1 0 12.5 0 a6.25 6.25 0 1 0 -12.5 0z" fill="url(&quot;#SvgjsLinearGradient2032&quot;)"></path><path d="M212.5 187.5L237.5 212.5M112.5 212.5L137.5 187.5M187.5 187.5L212.5 212.5M-12.5 237.5L12.5 237.5L37.5 212.5L62.5 212.5L87.5 212.5L112.5 212.5L137.5 212.5L162.5 212.5L187.5 187.5L212.5 187.5L237.5 187.5" stroke="url(&quot;#SvgjsLinearGradient2032&quot;)" stroke-width="4.17"></path><path d="M231.25 187.5 a6.25 6.25 0 1 0 12.5 0 a6.25 6.25 0 1 0 -12.5 0zM231.25 212.5 a6.25 6.25 0 1 0 12.5 0 a6.25 6.25 0 1 0 -12.5 0zM131.25 187.5 a6.25 6.25 0 1 0 12.5 0 a6.25 6.25 0 1 0 -12.5 0zM206.25 212.5 a6.25 6.25 0 1 0 12.5 0 a6.25 6.25 0 1 0 -12.5 0z" fill="url(&quot;#SvgjsLinearGradient2032&quot;)"></path><path d="M-12.5 337.5L12.5 362.5L37.5 362.5L62.5 387.5L87.5 387.5" stroke="url(&quot;#SvgjsLinearGradient2032&quot;)" stroke-width="4.17"></path><path d="M81.25 387.5 a6.25 6.25 0 1 0 12.5 0 a6.25 6.25 0 1 0 -12.5 0z" fill="url(&quot;#SvgjsLinearGradient2032&quot;)"></path><path d="M-12.5 212.5L12.5 212.5L37.5 187.5" stroke="url(&quot;#SvgjsLinearGradient2032&quot;)" stroke-width="4.17"></path><path d="M31.25 187.5 a6.25 6.25 0 1 0 12.5 0 a6.25 6.25 0 1 0 -12.5 0z" fill="url(&quot;#SvgjsLinearGradient2032&quot;)"></path><path d="M-12.5 362.5L12.5 387.5L37.5 387.5L62.5 412.5L87.5 412.5L112.5 412.5L137.5 412.5" stroke="url(&quot;#SvgjsLinearGradient2032&quot;)" stroke-width="4.17"></path><path d="M131.25 412.5 a6.25 6.25 0 1 0 12.5 0 a6.25 6.25 0 1 0 -12.5 0z" fill="url(&quot;#SvgjsLinearGradient2032&quot;)"></path><path d="M162.5 137.5L187.5 162.5M87.5 137.5L112.5 162.5L137.5 162.5L162.5 162.5M62.5 162.5L87.5 162.5L112.5 187.5M-12.5 187.5L12.5 187.5L37.5 162.5L62.5 162.5L87.5 137.5L112.5 137.5L137.5 137.5L162.5 137.5L187.5 137.5L212.5 137.5L237.5 137.5" stroke="url(&quot;#SvgjsLinearGradient2032&quot;)" stroke-width="4.17"></path><path d="M231.25 137.5 a6.25 6.25 0 1 0 12.5 0 a6.25 6.25 0 1 0 -12.5 0zM181.25 162.5 a6.25 6.25 0 1 0 12.5 0 a6.25 6.25 0 1 0 -12.5 0zM156.25 162.5 a6.25 6.25 0 1 0 12.5 0 a6.25 6.25 0 1 0 -12.5 0zM106.25 187.5 a6.25 6.25 0 1 0 12.5 0 a6.25 6.25 0 1 0 -12.5 0z" fill="url(&quot;#SvgjsLinearGradient2032&quot;)"></path><path d="M87.5 437.5L112.5 462.5M412.5 412.5L437.5 387.5L462.5 387.5L487.5 387.5M387.5 437.5L412.5 437.5M312.5 437.5L337.5 462.5L362.5 462.5L387.5 462.5L412.5 462.5M287.5 437.5L312.5 462.5M-12.5 387.5L12.5 412.5L37.5 412.5L62.5 437.5L87.5 437.5L112.5 437.5L137.5 437.5L162.5 437.5L187.5 437.5L212.5 437.5L237.5 437.5L262.5 437.5L287.5 437.5L312.5 437.5L337.5 437.5L362.5 437.5L387.5 437.5L412.5 412.5L437.5 412.5L462.5 412.5" stroke="url(&quot;#SvgjsLinearGradient2032&quot;)" stroke-width="4.17"></path><path d="M456.25 412.5 a6.25 6.25 0 1 0 12.5 0 a6.25 6.25 0 1 0 -12.5 0zM106.25 462.5 a6.25 6.25 0 1 0 12.5 0 a6.25 6.25 0 1 0 -12.5 0zM481.25 387.5 a6.25 6.25 0 1 0 12.5 0 a6.25 6.25 0 1 0 -12.5 0zM406.25 437.5 a6.25 6.25 0 1 0 12.5 0 a6.25 6.25 0 1 0 -12.5 0zM406.25 462.5 a6.25 6.25 0 1 0 12.5 0 a6.25 6.25 0 1 0 -12.5 0zM306.25 462.5 a6.25 6.25 0 1 0 12.5 0 a6.25 6.25 0 1 0 -12.5 0z" fill="url(&quot;#SvgjsLinearGradient2032&quot;)"></path><path d="M337.5 87.5L362.5 62.5L387.5 62.5L412.5 62.5L437.5 62.5L462.5 62.5M562.5 112.5L587.5 137.5L612.5 137.5L637.5 162.5L662.5 162.5M387.5 87.5L412.5 112.5L437.5 112.5L462.5 112.5L487.5 137.5L512.5 137.5L537.5 137.5M512.5 112.5L537.5 87.5L562.5 87.5L587.5 87.5L612.5 87.5M612.5 112.5L637.5 112.5L662.5 112.5M212.5 112.5L237.5 87.5L262.5 62.5L287.5 62.5L312.5 62.5L337.5 62.5M-12.5 162.5L12.5 162.5L37.5 137.5L62.5 137.5L87.5 112.5L112.5 112.5L137.5 112.5L162.5 112.5L187.5 112.5L212.5 112.5L237.5 112.5L262.5 87.5L287.5 87.5L312.5 87.5L337.5 87.5L362.5 87.5L387.5 87.5L412.5 87.5L437.5 87.5L462.5 87.5L487.5 112.5L512.5 112.5L537.5 112.5L562.5 112.5L587.5 112.5L612.5 112.5L637.5 137.5" stroke="url(&quot;#SvgjsLinearGradient2032&quot;)" stroke-width="4.17"></path><path d="M631.25 137.5 a6.25 6.25 0 1 0 12.5 0 a6.25 6.25 0 1 0 -12.5 0zM456.25 62.5 a6.25 6.25 0 1 0 12.5 0 a6.25 6.25 0 1 0 -12.5 0zM656.25 162.5 a6.25 6.25 0 1 0 12.5 0 a6.25 6.25 0 1 0 -12.5 0zM531.25 137.5 a6.25 6.25 0 1 0 12.5 0 a6.25 6.25 0 1 0 -12.5 0zM606.25 87.5 a6.25 6.25 0 1 0 12.5 0 a6.25 6.25 0 1 0 -12.5 0zM656.25 112.5 a6.25 6.25 0 1 0 12.5 0 a6.25 6.25 0 1 0 -12.5 0zM331.25 62.5 a6.25 6.25 0 1 0 12.5 0 a6.25 6.25 0 1 0 -12.5 0z" fill="url(&quot;#SvgjsLinearGradient2032&quot;)"></path></g></g><defs><mask id="SvgjsMask2031"><rect width="1440" height="560" fill="#ffffff"></rect></mask><linearGradient x1="0" y1="280" x2="720" y2="280" gradientUnits="userSpaceOnUse" id="SvgjsLinearGradient2032"><stop stop-color="#3a7cc3" offset="0"></stop><stop stop-color="rgba(185, 69, 188, 1)" offset="1"></stop></linearGradient><mask id="SvgjsMask2033"><rect width="1440" height="560" fill="white"></rect><path d="M159.37 337.5 a3.13 3.13 0 1 0 6.26 0 a3.13 3.13 0 1 0 -6.26 0zM159.37 312.5 a3.13 3.13 0 1 0 6.26 0 a3.13 3.13 0 1 0 -6.26 0zM84.37 312.5 a3.13 3.13 0 1 0 6.26 0 a3.13 3.13 0 1 0 -6.26 0zM184.37 287.5 a3.13 3.13 0 1 0 6.26 0 a3.13 3.13 0 1 0 -6.26 0z" fill="black"></path><path d="M184.37 237.5 a3.13 3.13 0 1 0 6.26 0 a3.13 3.13 0 1 0 -6.26 0zM209.37 262.5 a3.13 3.13 0 1 0 6.26 0 a3.13 3.13 0 1 0 -6.26 0zM109.37 262.5 a3.13 3.13 0 1 0 6.26 0 a3.13 3.13 0 1 0 -6.26 0zM109.37 312.5 a3.13 3.13 0 1 0 6.26 0 a3.13 3.13 0 1 0 -6.26 0z" fill="black"></path><path d="M384.37 362.5 a3.13 3.13 0 1 0 6.26 0 a3.13 3.13 0 1 0 -6.26 0zM284.37 387.5 a3.13 3.13 0 1 0 6.26 0 a3.13 3.13 0 1 0 -6.26 0zM359.37 387.5 a3.13 3.13 0 1 0 6.26 0 a3.13 3.13 0 1 0 -6.26 0zM234.37 312.5 a3.13 3.13 0 1 0 6.26 0 a3.13 3.13 0 1 0 -6.26 0zM159.37 387.5 a3.13 3.13 0 1 0 6.26 0 a3.13 3.13 0 1 0 -6.26 0z" fill="black"></path><path d="M234.37 187.5 a3.13 3.13 0 1 0 6.26 0 a3.13 3.13 0 1 0 -6.26 0zM234.37 212.5 a3.13 3.13 0 1 0 6.26 0 a3.13 3.13 0 1 0 -6.26 0zM134.37 187.5 a3.13 3.13 0 1 0 6.26 0 a3.13 3.13 0 1 0 -6.26 0zM209.37 212.5 a3.13 3.13 0 1 0 6.26 0 a3.13 3.13 0 1 0 -6.26 0z" fill="black"></path><path d="M84.37 387.5 a3.13 3.13 0 1 0 6.26 0 a3.13 3.13 0 1 0 -6.26 0z" fill="black"></path><path d="M34.37 187.5 a3.13 3.13 0 1 0 6.26 0 a3.13 3.13 0 1 0 -6.26 0z" fill="black"></path><path d="M134.37 412.5 a3.13 3.13 0 1 0 6.26 0 a3.13 3.13 0 1 0 -6.26 0z" fill="black"></path><path d="M234.37 137.5 a3.13 3.13 0 1 0 6.26 0 a3.13 3.13 0 1 0 -6.26 0zM184.37 162.5 a3.13 3.13 0 1 0 6.26 0 a3.13 3.13 0 1 0 -6.26 0zM159.37 162.5 a3.13 3.13 0 1 0 6.26 0 a3.13 3.13 0 1 0 -6.26 0zM109.37 187.5 a3.13 3.13 0 1 0 6.26 0 a3.13 3.13 0 1 0 -6.26 0z" fill="black"></path><path d="M459.37 412.5 a3.13 3.13 0 1 0 6.26 0 a3.13 3.13 0 1 0 -6.26 0zM109.37 462.5 a3.13 3.13 0 1 0 6.26 0 a3.13 3.13 0 1 0 -6.26 0zM484.37 387.5 a3.13 3.13 0 1 0 6.26 0 a3.13 3.13 0 1 0 -6.26 0zM409.37 437.5 a3.13 3.13 0 1 0 6.26 0 a3.13 3.13 0 1 0 -6.26 0zM409.37 462.5 a3.13 3.13 0 1 0 6.26 0 a3.13 3.13 0 1 0 -6.26 0zM309.37 462.5 a3.13 3.13 0 1 0 6.26 0 a3.13 3.13 0 1 0 -6.26 0z" fill="black"></path><path d="M634.37 137.5 a3.13 3.13 0 1 0 6.26 0 a3.13 3.13 0 1 0 -6.26 0zM459.37 62.5 a3.13 3.13 0 1 0 6.26 0 a3.13 3.13 0 1 0 -6.26 0zM659.37 162.5 a3.13 3.13 0 1 0 6.26 0 a3.13 3.13 0 1 0 -6.26 0zM534.37 137.5 a3.13 3.13 0 1 0 6.26 0 a3.13 3.13 0 1 0 -6.26 0zM609.37 87.5 a3.13 3.13 0 1 0 6.26 0 a3.13 3.13 0 1 0 -6.26 0zM659.37 112.5 a3.13 3.13 0 1 0 6.26 0 a3.13 3.13 0 1 0 -6.26 0zM334.37 62.5 a3.13 3.13 0 1 0 6.26 0 a3.13 3.13 0 1 0 -6.26 0z" fill="black"></path></mask></defs></svg>